<svg xmlns="http://www.w3.org/2000/svg" viewBox="45 18 745 229">
  <defs>
    <filter id="neon" x="-12%" y="-38%" width="124%" height="176%" color-interpolation-filters="sRGB">
      <feGaussianBlur stdDeviation="2.8" result="glow"/>
      <feFlood flood-color="currentColor" flood-opacity="0.72"/>
      <feComposite in2="glow" operator="in"/>
      <feMerge>
        <feMergeNode/>
        <feMergeNode in="SourceGraphic"/>
      </feMerge>
    </filter>
  </defs>
  <path fill="none" stroke="currentColor" stroke-width="11" stroke-linecap="round" stroke-linejoin="round" filter="url(#neon)" d="M102 239h66m-66 0v-43c14-6 25-10 25-25 0-13-11-21-27-21-1-31-2-58 15-83 24-36 71-49 138-47 14 0 19 4 9 11-34 22-67 45-74 80-6 28 10 46 41 47 31 1 34 16 49 43 21 38 72 38 96-2 31-51 42-123 74-126 31-2 48 73 62 118 15 50 38 70 63 31 17-26 28-91 50-91 20 0 38 36 55 65 15 27 44 28 62 2 20-28 44-29 59 2 11 23 36 19 54 3 12-11 37-10 83-10"/>
</svg>
