<svg xmlns="http://www.w3.org/2000/svg" viewBox="32 22 755 236">
  <defs>
    <filter id="neon" x="-12%" y="-35%" width="124%" height="170%" color-interpolation-filters="sRGB">
      <feGaussianBlur stdDeviation="2.8" result="glow"/>
      <feFlood flood-color="currentColor" flood-opacity="0.72"/>
      <feComposite in2="glow" operator="in"/>
      <feMerge>
        <feMergeNode/>
        <feMergeNode in="SourceGraphic"/>
      </feMerge>
    </filter>
  </defs>
  <g fill="none" stroke="currentColor" stroke-linecap="round" stroke-linejoin="round" filter="url(#neon)">
    <path stroke-width="11" d="M250 103c-36-6-72-9-108-8-29 1-45-5-62-18-14-10-32-7-25 9 4 10 18 12 18 24 0 15-13 31-15 55-2 25 6 50-16 60-13 6-10 24 16 29 21 4 39-3 61-3h121"/>
    <g transform="matrix(1 0 0 .9 0 25.1)">
      <path stroke-width="11" d="M240 251c41 0 45-46 55-98 11-56 17-124 39-125 26-1 34 90 42 143 9 61 19 96 37 74 19-23 24-175 52-175 26 0 34 79 43 133 8 48 24 64 43 37 15-21 19-117 44-116 25 1 30 57 39 101 7 35 25 42 39 12 8-18 9-61 28-62 18-1 20 40 27 58 7 19 22 18 34-4l8-15h88"/>
    </g>
    <path stroke-width="11" d="M105 201c8-27 18-55 32-68 18-17 52-10 58 11 4 14-14 34-27 62-8 17-37 23-55 16-11-4-15-10-8-21Z"/>
  </g>
</svg>
